# MagicaVoxel @ Ephtracy

# group
g room

# material
mtllib room.mtl
usemtl palette

# normals
vn -1 0 0
vn 1 0 0
vn 0 0 1
vn 0 0 -1
vn 0 -1 0
vn 0 1 0

# texcoords
vt 0.306641 0.5
vt 0.533203 0.5
vt 0.564453 0.5
vt 0.568359 0.5
vt 0.572266 0.5
vt 0.576172 0.5
vt 0.580078 0.5
vt 0.583984 0.5
vt 0.587891 0.5

# verts
v -60 0 63
v -60 0 -63
v -60 38 63
v -60 38 -63
v -22 0 61
v -22 0 22
v -22 0 12
v -22 0 -16
v -22 0 -18
v -22 0 -24
v -22 0 -34
v -22 0 -61
v -22 1 61
v -22 1 22
v -22 1 12
v -22 1 -16
v -22 1 -18
v -22 1 -24
v -22 1 -34
v -22 1 -61
v -22 25 22
v -22 25 12
v -22 25 -24
v -22 25 -34
v -22 37 61
v -22 37 -16
v -22 37 -18
v -22 37 -61
v -22 38 61
v -22 38 -16
v -22 38 -18
v -22 38 -61
v 9 0 30
v 9 0 28
v 9 0 -40
v 9 0 -42
v 9 1 30
v 9 1 29
v 9 1 28
v 9 1 -40
v 9 1 -41
v 9 1 -42
v 9 25 30
v 9 25 29
v 9 25 28
v 9 25 -40
v 9 25 -41
v 9 25 -42
v 13 0 61
v 13 0 30
v 13 1 61
v 13 1 30
v 13 37 61
v 13 37 30
v 13 38 61
v 13 38 30
v 28 0 28
v 28 0 22
v 28 0 12
v 28 0 -24
v 28 0 -34
v 28 0 -40
v 28 1 28
v 28 1 22
v 28 1 12
v 28 1 -24
v 28 1 -34
v 28 1 -40
v 28 25 22
v 28 25 12
v 28 25 -24
v 28 25 -34
v 28 37 28
v 28 37 -40
v 28 38 28
v 28 38 -40
v 58 0 61
v 58 0 3
v 58 0 1
v 58 0 -40
v 58 0 -42
v 58 0 -61
v 58 1 61
v 58 1 3
v 58 1 1
v 58 1 -40
v 58 1 -42
v 58 1 -61
v 58 37 61
v 58 37 3
v 58 37 1
v 58 37 -40
v 58 37 -42
v 58 37 -61
v 58 38 61
v 58 38 3
v 58 38 1
v 58 38 -40
v 58 38 -42
v 58 38 -61
v -58 0 61
v -58 0 -16
v -58 0 -18
v -58 0 -61
v -58 1 61
v -58 1 -16
v -58 1 -18
v -58 1 -61
v -58 37 61
v -58 37 -16
v -58 37 -18
v -58 37 -61
v -58 38 61
v -58 38 -16
v -58 38 -18
v -58 38 -61
v -20 0 61
v -20 0 30
v -20 0 28
v -20 0 22
v -20 0 12
v -20 0 -24
v -20 0 -34
v -20 0 -40
v -20 0 -42
v -20 0 -61
v -20 1 61
v -20 1 30
v -20 1 28
v -20 1 22
v -20 1 12
v -20 1 -24
v -20 1 -34
v -20 1 -40
v -20 1 -42
v -20 1 -61
v -20 25 22
v -20 25 12
v -20 25 -24
v -20 25 -34
v -20 37 61
v -20 37 30
v -20 37 28
v -20 37 -40
v -20 37 -42
v -20 37 -61
v -20 38 61
v -20 38 30
v -20 38 28
v -20 38 -40
v -20 38 -42
v -20 38 -61
v -1 0 30
v -1 0 28
v -1 0 -40
v -1 0 -42
v -1 1 30
v -1 1 29
v -1 1 28
v -1 1 -40
v -1 1 -41
v -1 1 -42
v -1 25 30
v -1 25 29
v -1 25 28
v -1 25 -40
v -1 25 -41
v -1 25 -42
v 15 0 61
v 15 0 30
v 15 1 61
v 15 1 30
v 15 37 61
v 15 37 30
v 15 38 61
v 15 38 30
v 30 0 30
v 30 0 22
v 30 0 12
v 30 0 3
v 30 0 1
v 30 0 -24
v 30 0 -34
v 30 0 -40
v 30 1 30
v 30 1 22
v 30 1 12
v 30 1 3
v 30 1 1
v 30 1 -24
v 30 1 -34
v 30 1 -40
v 30 25 22
v 30 25 12
v 30 25 -24
v 30 25 -34
v 30 37 30
v 30 37 3
v 30 37 1
v 30 37 -40
v 30 38 30
v 30 38 3
v 30 38 1
v 30 38 -40
v 60 0 63
v 60 0 -63
v 60 38 63
v 60 38 -63
v -60 0 63
v -60 38 63
v 60 0 63
v 60 38 63
v -20 0 30
v -20 1 30
v -20 37 30
v -20 38 30
v -1 0 30
v -1 1 30
v -1 25 30
v 9 0 30
v 9 1 30
v 9 25 30
v 13 0 30
v 13 1 30
v 13 37 30
v 13 38 30
v 15 0 30
v 15 1 30
v 15 37 30
v 15 38 30
v 30 0 30
v 30 1 30
v 30 37 30
v 30 38 30
v -22 0 12
v -22 1 12
v -22 25 12
v -21 1 12
v -21 25 12
v -20 0 12
v -20 1 12
v -20 25 12
v 28 0 12
v 28 1 12
v 28 25 12
v 29 1 12
v 29 25 12
v 30 0 12
v 30 1 12
v 30 25 12
v 30 0 3
v 30 1 3
v 30 37 3
v 30 38 3
v 58 0 3
v 58 1 3
v 58 37 3
v 58 38 3
v -58 0 -16
v -58 1 -16
v -58 37 -16
v -58 38 -16
v -22 0 -16
v -22 1 -16
v -22 37 -16
v -22 38 -16
v -22 0 -34
v -22 1 -34
v -22 25 -34
v -21 1 -34
v -21 25 -34
v -20 0 -34
v -20 1 -34
v -20 25 -34
v 28 0 -34
v 28 1 -34
v 28 25 -34
v 29 1 -34
v 29 25 -34
v 30 0 -34
v 30 1 -34
v 30 25 -34
v -20 0 -40
v -20 1 -40
v -20 37 -40
v -20 38 -40
v -1 0 -40
v -1 1 -40
v -1 25 -40
v 9 0 -40
v 9 1 -40
v 9 25 -40
v 28 0 -40
v 28 1 -40
v 28 37 -40
v 28 38 -40
v 30 0 -40
v 30 1 -40
v 30 37 -40
v 30 38 -40
v 58 0 -40
v 58 1 -40
v 58 37 -40
v 58 38 -40
v -58 0 -61
v -58 1 -61
v -58 37 -61
v -58 38 -61
v -22 0 -61
v -22 1 -61
v -22 37 -61
v -22 38 -61
v -20 0 -61
v -20 1 -61
v -20 37 -61
v -20 38 -61
v 58 0 -61
v 58 1 -61
v 58 37 -61
v 58 38 -61
v -58 0 61
v -58 1 61
v -58 37 61
v -58 38 61
v -22 0 61
v -22 1 61
v -22 37 61
v -22 38 61
v -20 0 61
v -20 1 61
v -20 37 61
v -20 38 61
v 13 0 61
v 13 1 61
v 13 37 61
v 13 38 61
v 15 0 61
v 15 1 61
v 15 37 61
v 15 38 61
v 58 0 61
v 58 1 61
v 58 37 61
v 58 38 61
v -20 0 28
v -20 1 28
v -20 37 28
v -20 38 28
v -1 0 28
v -1 1 28
v -1 25 28
v 9 0 28
v 9 1 28
v 9 25 28
v 28 0 28
v 28 1 28
v 28 37 28
v 28 38 28
v -22 0 22
v -22 1 22
v -22 25 22
v -21 1 22
v -21 25 22
v -20 0 22
v -20 1 22
v -20 25 22
v 28 0 22
v 28 1 22
v 28 25 22
v 29 1 22
v 29 25 22
v 30 0 22
v 30 1 22
v 30 25 22
v 30 0 1
v 30 1 1
v 30 37 1
v 30 38 1
v 58 0 1
v 58 1 1
v 58 37 1
v 58 38 1
v -58 0 -18
v -58 1 -18
v -58 37 -18
v -58 38 -18
v -22 0 -18
v -22 1 -18
v -22 37 -18
v -22 38 -18
v -22 0 -24
v -22 1 -24
v -22 25 -24
v -21 1 -24
v -21 25 -24
v -20 0 -24
v -20 1 -24
v -20 25 -24
v 28 0 -24
v 28 1 -24
v 28 25 -24
v 29 1 -24
v 29 25 -24
v 30 0 -24
v 30 1 -24
v 30 25 -24
v -20 0 -42
v -20 1 -42
v -20 37 -42
v -20 38 -42
v -1 0 -42
v -1 1 -42
v -1 25 -42
v 9 0 -42
v 9 1 -42
v 9 25 -42
v 58 0 -42
v 58 1 -42
v 58 37 -42
v 58 38 -42
v -60 0 -63
v -60 38 -63
v 60 0 -63
v 60 38 -63
v -60 0 63
v 60 0 63
v -58 0 61
v -22 0 61
v -20 0 61
v 13 0 61
v 15 0 61
v 58 0 61
v -20 0 30
v -1 0 30
v 9 0 30
v 13 0 30
v 15 0 30
v 30 0 30
v -20 0 28
v -1 0 28
v 9 0 28
v 28 0 28
v -22 0 22
v -20 0 22
v 28 0 22
v 30 0 22
v -22 0 12
v -20 0 12
v 28 0 12
v 30 0 12
v 30 0 3
v 58 0 3
v 30 0 1
v 58 0 1
v -58 0 -16
v -22 0 -16
v -58 0 -18
v -22 0 -18
v -22 0 -24
v -20 0 -24
v 28 0 -24
v 30 0 -24
v -22 0 -34
v -20 0 -34
v 28 0 -34
v 30 0 -34
v -20 0 -40
v -1 0 -40
v 9 0 -40
v 28 0 -40
v 30 0 -40
v 58 0 -40
v -20 0 -42
v -1 0 -42
v 9 0 -42
v 58 0 -42
v -58 0 -61
v -22 0 -61
v -20 0 -61
v 58 0 -61
v -60 0 -63
v 60 0 -63
v -1 25 30
v 9 25 30
v -1 25 29
v 9 25 29
v -1 25 28
v 9 25 28
v -22 25 22
v -21 25 22
v -20 25 22
v 28 25 22
v 29 25 22
v 30 25 22
v -22 25 12
v -21 25 12
v -20 25 12
v 28 25 12
v 29 25 12
v 30 25 12
v -22 25 -24
v -21 25 -24
v -20 25 -24
v 28 25 -24
v 29 25 -24
v 30 25 -24
v -22 25 -34
v -21 25 -34
v -20 25 -34
v 28 25 -34
v 29 25 -34
v 30 25 -34
v -1 25 -40
v 9 25 -40
v -1 25 -41
v 9 25 -41
v -1 25 -42
v 9 25 -42
v -60 38 63
v 60 38 63
v -58 38 61
v -22 38 61
v -20 38 61
v 13 38 61
v 15 38 61
v 58 38 61
v -20 38 30
v 13 38 30
v 15 38 30
v 30 38 30
v -20 38 28
v 28 38 28
v 30 38 3
v 58 38 3
v 30 38 1
v 58 38 1
v -58 38 -16
v -22 38 -16
v -58 38 -18
v -22 38 -18
v -20 38 -40
v 28 38 -40
v 30 38 -40
v 58 38 -40
v -20 38 -42
v 58 38 -42
v -58 38 -61
v -22 38 -61
v -20 38 -61
v 58 38 -61
v -60 38 -63
v 60 38 -63

# faces
f 3/2/1 2/2/1 1/2/1
f 4/2/1 2/2/1 3/2/1
f 13/2/1 6/2/1 5/2/1
f 14/2/1 6/2/1 13/2/1
f 15/2/1 8/2/1 7/2/1
f 16/2/1 8/2/1 15/2/1
f 17/2/1 10/2/1 9/2/1
f 18/2/1 10/2/1 17/2/1
f 19/2/1 12/2/1 11/2/1
f 20/2/1 12/2/1 19/2/1
f 21/4/1 14/4/1 13/4/1
f 22/4/1 16/4/1 15/4/1
f 23/6/1 18/6/1 17/6/1
f 24/6/1 20/6/1 19/6/1
f 25/4/1 22/4/1 21/4/1
f 25/4/1 21/4/1 13/4/1
f 26/4/1 16/4/1 22/4/1
f 26/4/1 22/4/1 25/4/1
f 27/6/1 24/6/1 23/6/1
f 27/6/1 23/6/1 17/6/1
f 28/6/1 20/6/1 24/6/1
f 28/6/1 24/6/1 27/6/1
f 29/2/1 26/2/1 25/2/1
f 30/2/1 26/2/1 29/2/1
f 31/2/1 28/2/1 27/2/1
f 32/2/1 28/2/1 31/2/1
f 37/2/1 34/2/1 33/2/1
f 38/2/1 34/2/1 37/2/1
f 39/2/1 34/2/1 38/2/1
f 40/2/1 36/2/1 35/2/1
f 41/2/1 36/2/1 40/2/1
f 42/2/1 36/2/1 41/2/1
f 43/5/1 38/5/1 37/5/1
f 44/3/1 39/3/1 38/3/1
f 44/5/1 38/5/1 43/5/1
f 45/3/1 39/3/1 44/3/1
f 46/3/1 41/3/1 40/3/1
f 47/7/1 42/7/1 41/7/1
f 47/3/1 41/3/1 46/3/1
f 48/7/1 42/7/1 47/7/1
f 51/2/1 50/2/1 49/2/1
f 52/2/1 50/2/1 51/2/1
f 53/5/1 52/5/1 51/5/1
f 54/5/1 52/5/1 53/5/1
f 55/2/1 54/2/1 53/2/1
f 56/2/1 54/2/1 55/2/1
f 63/2/1 58/2/1 57/2/1
f 64/2/1 58/2/1 63/2/1
f 65/2/1 60/2/1 59/2/1
f 66/2/1 60/2/1 65/2/1
f 67/2/1 62/2/1 61/2/1
f 68/2/1 62/2/1 67/2/1
f 69/3/1 64/3/1 63/3/1
f 70/3/1 66/3/1 65/3/1
f 71/3/1 66/3/1 70/3/1
f 72/3/1 68/3/1 67/3/1
f 73/3/1 69/3/1 63/3/1
f 73/3/1 72/3/1 71/3/1
f 73/3/1 71/3/1 70/3/1
f 73/3/1 70/3/1 69/3/1
f 74/3/1 68/3/1 72/3/1
f 74/3/1 72/3/1 73/3/1
f 75/2/1 74/2/1 73/2/1
f 76/2/1 74/2/1 75/2/1
f 83/2/1 78/2/1 77/2/1
f 84/2/1 78/2/1 83/2/1
f 85/2/1 80/2/1 79/2/1
f 86/2/1 80/2/1 85/2/1
f 87/2/1 82/2/1 81/2/1
f 88/2/1 82/2/1 87/2/1
f 89/9/1 84/9/1 83/9/1
f 90/9/1 84/9/1 89/9/1
f 91/8/1 86/8/1 85/8/1
f 92/8/1 86/8/1 91/8/1
f 93/7/1 88/7/1 87/7/1
f 94/7/1 88/7/1 93/7/1
f 95/2/1 90/2/1 89/2/1
f 96/2/1 90/2/1 95/2/1
f 97/2/1 92/2/1 91/2/1
f 98/2/1 92/2/1 97/2/1
f 99/2/1 94/2/1 93/2/1
f 100/2/1 94/2/1 99/2/1
f 101/2/2 102/2/2 105/2/2
f 105/2/2 102/2/2 106/2/2
f 103/2/2 104/2/2 107/2/2
f 107/2/2 104/2/2 108/2/2
f 105/4/2 106/4/2 109/4/2
f 109/4/2 106/4/2 110/4/2
f 107/6/2 108/6/2 111/6/2
f 111/6/2 108/6/2 112/6/2
f 109/2/2 110/2/2 113/2/2
f 113/2/2 110/2/2 114/2/2
f 111/2/2 112/2/2 115/2/2
f 115/2/2 112/2/2 116/2/2
f 117/2/2 118/2/2 127/2/2
f 127/2/2 118/2/2 128/2/2
f 119/2/2 120/2/2 129/2/2
f 129/2/2 120/2/2 130/2/2
f 121/2/2 122/2/2 131/2/2
f 131/2/2 122/2/2 132/2/2
f 123/2/2 124/2/2 133/2/2
f 133/2/2 124/2/2 134/2/2
f 125/2/2 126/2/2 135/2/2
f 135/2/2 126/2/2 136/2/2
f 129/3/2 130/3/2 137/3/2
f 131/3/2 132/3/2 138/3/2
f 138/3/2 132/3/2 139/3/2
f 133/3/2 134/3/2 140/3/2
f 127/5/2 128/5/2 141/5/2
f 141/5/2 128/5/2 142/5/2
f 138/3/2 139/3/2 143/3/2
f 139/3/2 140/3/2 143/3/2
f 129/3/2 137/3/2 143/3/2
f 137/3/2 138/3/2 143/3/2
f 140/3/2 134/3/2 144/3/2
f 143/3/2 140/3/2 144/3/2
f 135/7/2 136/7/2 145/7/2
f 145/7/2 136/7/2 146/7/2
f 141/2/2 142/2/2 147/2/2
f 147/2/2 142/2/2 148/2/2
f 143/2/2 144/2/2 149/2/2
f 149/2/2 144/2/2 150/2/2
f 145/2/2 146/2/2 151/2/2
f 151/2/2 146/2/2 152/2/2
f 153/2/2 154/2/2 157/2/2
f 157/2/2 154/2/2 158/2/2
f 158/2/2 154/2/2 159/2/2
f 155/2/2 156/2/2 160/2/2
f 160/2/2 156/2/2 161/2/2
f 161/2/2 156/2/2 162/2/2
f 157/5/2 158/5/2 163/5/2
f 158/3/2 159/3/2 164/3/2
f 163/5/2 158/5/2 164/5/2
f 164/3/2 159/3/2 165/3/2
f 160/3/2 161/3/2 166/3/2
f 161/7/2 162/7/2 167/7/2
f 166/3/2 161/3/2 167/3/2
f 167/7/2 162/7/2 168/7/2
f 169/2/2 170/2/2 171/2/2
f 171/2/2 170/2/2 172/2/2
f 171/9/2 172/9/2 173/9/2
f 173/9/2 172/9/2 174/9/2
f 173/2/2 174/2/2 175/2/2
f 175/2/2 174/2/2 176/2/2
f 177/2/2 178/2/2 185/2/2
f 185/2/2 178/2/2 186/2/2
f 179/2/2 180/2/2 187/2/2
f 187/2/2 180/2/2 188/2/2
f 181/2/2 182/2/2 189/2/2
f 189/2/2 182/2/2 190/2/2
f 183/2/2 184/2/2 191/2/2
f 191/2/2 184/2/2 192/2/2
f 185/9/2 186/9/2 193/9/2
f 187/9/2 188/9/2 194/9/2
f 189/8/2 190/8/2 195/8/2
f 191/8/2 192/8/2 196/8/2
f 193/9/2 194/9/2 197/9/2
f 185/9/2 193/9/2 197/9/2
f 194/9/2 188/9/2 198/9/2
f 197/9/2 194/9/2 198/9/2
f 195/8/2 196/8/2 199/8/2
f 189/8/2 195/8/2 199/8/2
f 196/8/2 192/8/2 200/8/2
f 199/8/2 196/8/2 200/8/2
f 197/2/2 198/2/2 201/2/2
f 201/2/2 198/2/2 202/2/2
f 199/2/2 200/2/2 203/2/2
f 203/2/2 200/2/2 204/2/2
f 205/2/2 206/2/2 207/2/2
f 207/2/2 206/2/2 208/2/2
f 211/2/3 210/2/3 209/2/3
f 212/2/3 210/2/3 211/2/3
f 217/2/3 214/2/3 213/2/3
f 218/5/3 215/5/3 214/5/3
f 218/2/3 214/2/3 217/2/3
f 219/5/3 215/5/3 218/5/3
f 222/5/3 215/5/3 219/5/3
f 223/2/3 221/2/3 220/2/3
f 224/5/3 222/5/3 221/5/3
f 224/2/3 221/2/3 223/2/3
f 225/2/3 216/2/3 215/2/3
f 225/5/3 222/5/3 224/5/3
f 225/5/3 215/5/3 222/5/3
f 226/2/3 216/2/3 225/2/3
f 231/2/3 228/2/3 227/2/3
f 232/9/3 229/9/3 228/9/3
f 232/2/3 228/2/3 231/2/3
f 233/2/3 230/2/3 229/2/3
f 233/9/3 229/9/3 232/9/3
f 234/2/3 230/2/3 233/2/3
f 238/2/3 236/2/3 235/2/3
f 238/4/3 237/4/3 236/4/3
f 239/4/3 237/4/3 238/4/3
f 240/2/3 238/2/3 235/2/3
f 241/3/3 239/3/3 238/3/3
f 241/2/3 238/2/3 240/2/3
f 242/3/3 239/3/3 241/3/3
f 246/2/3 244/2/3 243/2/3
f 246/3/3 245/3/3 244/3/3
f 247/3/3 245/3/3 246/3/3
f 248/2/3 246/2/3 243/2/3
f 249/9/3 247/9/3 246/9/3
f 249/2/3 246/2/3 248/2/3
f 250/9/3 247/9/3 249/9/3
f 255/2/3 252/2/3 251/2/3
f 256/9/3 253/9/3 252/9/3
f 256/2/3 252/2/3 255/2/3
f 257/2/3 254/2/3 253/2/3
f 257/9/3 253/9/3 256/9/3
f 258/2/3 254/2/3 257/2/3
f 263/2/3 260/2/3 259/2/3
f 264/4/3 261/4/3 260/4/3
f 264/2/3 260/2/3 263/2/3
f 265/2/3 262/2/3 261/2/3
f 265/4/3 261/4/3 264/4/3
f 266/2/3 262/2/3 265/2/3
f 270/2/3 268/2/3 267/2/3
f 270/6/3 269/6/3 268/6/3
f 271/6/3 269/6/3 270/6/3
f 272/2/3 270/2/3 267/2/3
f 273/3/3 271/3/3 270/3/3
f 273/2/3 270/2/3 272/2/3
f 274/3/3 271/3/3 273/3/3
f 278/2/3 276/2/3 275/2/3
f 278/3/3 277/3/3 276/3/3
f 279/3/3 277/3/3 278/3/3
f 280/2/3 278/2/3 275/2/3
f 281/8/3 279/8/3 278/8/3
f 281/2/3 278/2/3 280/2/3
f 282/8/3 279/8/3 281/8/3
f 287/2/3 284/2/3 283/2/3
f 288/3/3 285/3/3 284/3/3
f 288/2/3 284/2/3 287/2/3
f 289/3/3 285/3/3 288/3/3
f 292/3/3 285/3/3 289/3/3
f 293/2/3 291/2/3 290/2/3
f 294/3/3 292/3/3 291/3/3
f 294/2/3 291/2/3 293/2/3
f 295/2/3 286/2/3 285/2/3
f 295/3/3 292/3/3 294/3/3
f 295/3/3 285/3/3 292/3/3
f 296/2/3 286/2/3 295/2/3
f 301/2/3 298/2/3 297/2/3
f 302/8/3 299/8/3 298/8/3
f 302/2/3 298/2/3 301/2/3
f 303/2/3 300/2/3 299/2/3
f 303/8/3 299/8/3 302/8/3
f 304/2/3 300/2/3 303/2/3
f 309/2/3 306/2/3 305/2/3
f 310/6/3 307/6/3 306/6/3
f 310/2/3 306/2/3 309/2/3
f 311/2/3 308/2/3 307/2/3
f 311/6/3 307/6/3 310/6/3
f 312/2/3 308/2/3 311/2/3
f 317/2/3 314/2/3 313/2/3
f 318/7/3 315/7/3 314/7/3
f 318/2/3 314/2/3 317/2/3
f 319/2/3 316/2/3 315/2/3
f 319/7/3 315/7/3 318/7/3
f 320/2/3 316/2/3 319/2/3
f 321/2/4 322/2/4 325/2/4
f 322/4/4 323/4/4 326/4/4
f 325/2/4 322/2/4 326/2/4
f 323/2/4 324/2/4 327/2/4
f 326/4/4 323/4/4 327/4/4
f 327/2/4 324/2/4 328/2/4
f 329/2/4 330/2/4 333/2/4
f 330/5/4 331/5/4 334/5/4
f 333/2/4 330/2/4 334/2/4
f 331/2/4 332/2/4 335/2/4
f 334/5/4 331/5/4 335/5/4
f 335/2/4 332/2/4 336/2/4
f 337/2/4 338/2/4 341/2/4
f 338/9/4 339/9/4 342/9/4
f 341/2/4 338/2/4 342/2/4
f 339/2/4 340/2/4 343/2/4
f 342/9/4 339/9/4 343/9/4
f 343/2/4 340/2/4 344/2/4
f 345/2/4 346/2/4 349/2/4
f 346/3/4 347/3/4 350/3/4
f 349/2/4 346/2/4 350/2/4
f 350/3/4 347/3/4 351/3/4
f 351/3/4 347/3/4 354/3/4
f 352/2/4 353/2/4 355/2/4
f 353/3/4 354/3/4 356/3/4
f 355/2/4 353/2/4 356/2/4
f 347/2/4 348/2/4 357/2/4
f 356/3/4 354/3/4 357/3/4
f 354/3/4 347/3/4 357/3/4
f 357/2/4 348/2/4 358/2/4
f 359/2/4 360/2/4 362/2/4
f 360/4/4 361/4/4 362/4/4
f 362/4/4 361/4/4 363/4/4
f 359/2/4 362/2/4 364/2/4
f 362/3/4 363/3/4 365/3/4
f 364/2/4 362/2/4 365/2/4
f 365/3/4 363/3/4 366/3/4
f 367/2/4 368/2/4 370/2/4
f 368/3/4 369/3/4 370/3/4
f 370/3/4 369/3/4 371/3/4
f 367/2/4 370/2/4 372/2/4
f 370/9/4 371/9/4 373/9/4
f 372/2/4 370/2/4 373/2/4
f 373/9/4 371/9/4 374/9/4
f 375/2/4 376/2/4 379/2/4
f 376/8/4 377/8/4 380/8/4
f 379/2/4 376/2/4 380/2/4
f 377/2/4 378/2/4 381/2/4
f 380/8/4 377/8/4 381/8/4
f 381/2/4 378/2/4 382/2/4
f 383/2/4 384/2/4 387/2/4
f 384/6/4 385/6/4 388/6/4
f 387/2/4 384/2/4 388/2/4
f 385/2/4 386/2/4 389/2/4
f 388/6/4 385/6/4 389/6/4
f 389/2/4 386/2/4 390/2/4
f 391/2/4 392/2/4 394/2/4
f 392/6/4 393/6/4 394/6/4
f 394/6/4 393/6/4 395/6/4
f 391/2/4 394/2/4 396/2/4
f 394/3/4 395/3/4 397/3/4
f 396/2/4 394/2/4 397/2/4
f 397/3/4 395/3/4 398/3/4
f 399/2/4 400/2/4 402/2/4
f 400/3/4 401/3/4 402/3/4
f 402/3/4 401/3/4 403/3/4
f 399/2/4 402/2/4 404/2/4
f 402/8/4 403/8/4 405/8/4
f 404/2/4 402/2/4 405/2/4
f 405/8/4 403/8/4 406/8/4
f 407/2/4 408/2/4 411/2/4
f 408/7/4 409/7/4 412/7/4
f 411/2/4 408/2/4 412/2/4
f 412/7/4 409/7/4 413/7/4
f 413/7/4 409/7/4 416/7/4
f 414/2/4 415/2/4 417/2/4
f 415/7/4 416/7/4 418/7/4
f 417/2/4 415/2/4 418/2/4
f 409/2/4 410/2/4 419/2/4
f 418/7/4 416/7/4 419/7/4
f 416/7/4 409/7/4 419/7/4
f 419/2/4 410/2/4 420/2/4
f 421/2/4 422/2/4 423/2/4
f 423/2/4 422/2/4 424/2/4
f 427/2/5 426/2/5 425/2/5
f 428/2/5 426/2/5 427/2/5
f 429/2/5 426/2/5 428/2/5
f 430/2/5 426/2/5 429/2/5
f 431/2/5 426/2/5 430/2/5
f 432/2/5 426/2/5 431/2/5
f 433/2/5 429/2/5 428/2/5
f 436/2/5 431/2/5 430/2/5
f 437/2/5 431/2/5 436/2/5
f 439/2/5 434/2/5 433/2/5
f 439/2/5 433/2/5 428/2/5
f 440/2/5 434/2/5 439/2/5
f 441/2/5 438/2/5 437/2/5
f 441/2/5 437/2/5 436/2/5
f 441/2/5 436/2/5 435/2/5
f 442/2/5 438/2/5 441/2/5
f 443/2/5 439/2/5 428/2/5
f 444/2/5 439/2/5 443/2/5
f 445/2/5 438/2/5 442/2/5
f 446/2/5 438/2/5 445/2/5
f 451/2/5 450/2/5 449/2/5
f 452/2/5 426/2/5 432/2/5
f 453/2/5 451/2/5 449/2/5
f 453/2/5 452/2/5 451/2/5
f 454/2/5 426/2/5 452/2/5
f 454/2/5 452/2/5 453/2/5
f 455/2/5 427/2/5 425/2/5
f 456/2/5 448/2/5 447/2/5
f 457/2/5 455/2/5 425/2/5
f 457/2/5 456/2/5 455/2/5
f 458/2/5 448/2/5 456/2/5
f 458/2/5 456/2/5 457/2/5
f 459/2/5 448/2/5 458/2/5
f 460/2/5 448/2/5 459/2/5
f 461/2/5 453/2/5 449/2/5
f 462/2/5 453/2/5 461/2/5
f 467/2/5 464/2/5 463/2/5
f 470/2/5 466/2/5 465/2/5
f 471/2/5 466/2/5 470/2/5
f 472/2/5 426/2/5 454/2/5
f 473/2/5 468/2/5 467/2/5
f 473/2/5 467/2/5 463/2/5
f 474/2/5 468/2/5 473/2/5
f 475/2/5 471/2/5 470/2/5
f 475/2/5 470/2/5 469/2/5
f 475/2/5 472/2/5 471/2/5
f 476/2/5 426/2/5 472/2/5
f 476/2/5 472/2/5 475/2/5
f 477/2/5 457/2/5 425/2/5
f 478/2/5 473/2/5 463/2/5
f 479/2/5 473/2/5 478/2/5
f 480/2/5 426/2/5 476/2/5
f 481/2/5 479/2/5 478/2/5
f 481/2/5 480/2/5 479/2/5
f 481/2/5 477/2/5 425/2/5
f 481/2/5 478/2/5 477/2/5
f 482/2/5 426/2/5 480/2/5
f 482/2/5 480/2/5 481/2/5
f 485/5/5 484/5/5 483/5/5
f 486/5/5 484/5/5 485/5/5
f 487/3/5 486/3/5 485/3/5
f 488/3/5 486/3/5 487/3/5
f 495/4/5 490/4/5 489/4/5
f 496/3/5 491/3/5 490/3/5
f 496/4/5 490/4/5 495/4/5
f 497/3/5 491/3/5 496/3/5
f 498/3/5 493/3/5 492/3/5
f 499/9/5 494/9/5 493/9/5
f 499/3/5 493/3/5 498/3/5
f 500/9/5 494/9/5 499/9/5
f 507/6/5 502/6/5 501/6/5
f 508/3/5 503/3/5 502/3/5
f 508/6/5 502/6/5 507/6/5
f 509/3/5 503/3/5 508/3/5
f 510/3/5 505/3/5 504/3/5
f 511/8/5 506/8/5 505/8/5
f 511/3/5 505/3/5 510/3/5
f 512/8/5 506/8/5 511/8/5
f 515/3/5 514/3/5 513/3/5
f 516/3/5 514/3/5 515/3/5
f 517/7/5 516/7/5 515/7/5
f 518/7/5 516/7/5 517/7/5
f 519/2/6 520/2/6 521/2/6
f 521/2/6 520/2/6 522/2/6
f 522/2/6 520/2/6 523/2/6
f 523/2/6 520/2/6 524/2/6
f 524/2/6 520/2/6 525/2/6
f 525/2/6 520/2/6 526/2/6
f 522/2/6 523/2/6 527/2/6
f 524/2/6 525/2/6 528/2/6
f 528/2/6 525/2/6 529/2/6
f 522/2/6 527/2/6 531/2/6
f 529/2/6 530/2/6 531/2/6
f 528/2/6 529/2/6 531/2/6
f 527/2/6 528/2/6 531/2/6
f 531/2/6 530/2/6 532/2/6
f 532/2/6 530/2/6 533/2/6
f 526/2/6 520/2/6 534/2/6
f 532/2/6 533/2/6 535/2/6
f 533/2/6 534/2/6 535/2/6
f 534/2/6 520/2/6 536/2/6
f 535/2/6 534/2/6 536/2/6
f 519/2/6 521/2/6 537/2/6
f 522/2/6 531/2/6 538/2/6
f 519/2/6 537/2/6 539/2/6
f 537/2/6 538/2/6 539/2/6
f 538/2/6 531/2/6 540/2/6
f 539/2/6 538/2/6 540/2/6
f 540/2/6 531/2/6 541/2/6
f 532/2/6 535/2/6 542/2/6
f 542/2/6 535/2/6 543/2/6
f 536/2/6 520/2/6 544/2/6
f 542/2/6 543/2/6 545/2/6
f 543/2/6 544/2/6 545/2/6
f 540/2/6 541/2/6 545/2/6
f 541/2/6 542/2/6 545/2/6
f 544/2/6 520/2/6 546/2/6
f 545/2/6 544/2/6 546/2/6
f 519/2/6 539/2/6 547/2/6
f 540/2/6 545/2/6 548/2/6
f 548/2/6 545/2/6 549/2/6
f 546/2/6 520/2/6 550/2/6
f 519/2/6 547/2/6 551/2/6
f 549/2/6 550/2/6 551/2/6
f 548/2/6 549/2/6 551/2/6
f 547/2/6 548/2/6 551/2/6
f 550/2/6 520/2/6 552/2/6
f 551/2/6 550/2/6 552/2/6
